<svg width="244" height="18" viewBox="0 0 244 18" fill="none" xmlns="http://www.w3.org/2000/svg">
<path d="M28.068 12.12C26.78 12.12 25.636 11.672 24.636 10.776L25.224 10.08C25.672 10.488 26.12 10.788 26.568 10.98C27.024 11.172 27.536 11.268 28.104 11.268C28.664 11.268 29.116 11.136 29.46 10.872C29.804 10.6 29.976 10.248 29.976 9.816C29.976 9.408 29.824 9.084 29.52 8.844C29.216 8.604 28.64 8.396 27.792 8.22C26.792 8.004 26.072 7.712 25.632 7.344C25.192 6.976 24.972 6.452 24.972 5.772C24.972 5.108 25.232 4.56 25.752 4.128C26.272 3.696 26.932 3.48 27.732 3.48C28.844 3.48 29.828 3.824 30.684 4.512L30.132 5.244C29.388 4.636 28.58 4.332 27.708 4.332C27.172 4.332 26.74 4.464 26.412 4.728C26.084 4.984 25.92 5.312 25.92 5.712C25.92 6.128 26.076 6.456 26.388 6.696C26.708 6.936 27.312 7.152 28.2 7.344C29.152 7.552 29.844 7.844 30.276 8.22C30.716 8.588 30.936 9.096 30.936 9.744C30.936 10.456 30.668 11.032 30.132 11.472C29.596 11.904 28.908 12.12 28.068 12.12ZM34.5558 12.132C33.9238 12.132 33.3798 11.96 32.9238 11.616C32.4678 11.272 32.2398 10.792 32.2398 10.176C32.2398 9.528 32.4798 9.028 32.9598 8.676C33.4398 8.324 34.0838 8.148 34.8918 8.148C35.5318 8.148 36.1638 8.236 36.7878 8.412V8.22C36.7878 7.676 36.6278 7.26 36.3078 6.972C35.9878 6.684 35.5358 6.54 34.9518 6.54C34.3438 6.54 33.7158 6.688 33.0678 6.984L32.7918 6.228C33.5598 5.876 34.3118 5.7 35.0478 5.7C35.9278 5.7 36.5958 5.928 37.0518 6.384C37.4838 6.816 37.6998 7.424 37.6998 8.208V12H36.7878V11.076C36.2358 11.78 35.4918 12.132 34.5558 12.132ZM34.7358 11.388C35.3118 11.388 35.7998 11.232 36.1998 10.92C36.5998 10.608 36.7998 10.208 36.7998 9.72V9.144C36.1918 8.968 35.5878 8.88 34.9878 8.88C34.4198 8.88 33.9758 8.996 33.6558 9.228C33.3358 9.452 33.1758 9.76 33.1758 10.152C33.1758 10.528 33.3238 10.828 33.6198 11.052C33.9238 11.276 34.2958 11.388 34.7358 11.388ZM39.681 4.44V3.42H40.737V4.44H39.681ZM39.741 12V5.796H40.665V12H39.741ZM42.8093 12V5.796H43.7333V6.876C44.2213 6.068 44.9293 5.664 45.8573 5.664C46.5933 5.664 47.1733 5.892 47.5973 6.348C48.0213 6.796 48.2333 7.396 48.2333 8.148V12H47.3093V8.376C47.3093 7.792 47.1573 7.336 46.8533 7.008C46.5573 6.672 46.1373 6.504 45.5933 6.504C45.0573 6.504 44.6133 6.684 44.2613 7.044C43.9093 7.404 43.7333 7.872 43.7333 8.448V12H42.8093ZM52.2799 12.108C51.7439 12.108 51.3159 11.968 50.9959 11.688C50.6839 11.4 50.5279 10.956 50.5279 10.356V6.612H49.6639V5.796H50.5279V3.924H51.4519V5.796H53.4199V6.612H51.4519V10.236C51.4519 10.924 51.7999 11.268 52.4959 11.268C52.7999 11.268 53.0999 11.196 53.3959 11.052V11.844C53.0599 12.02 52.6879 12.108 52.2799 12.108ZM58.8091 12V3.6H61.9531C62.9131 3.6 63.6771 3.84 64.2451 4.32C64.8131 4.8 65.0971 5.456 65.0971 6.288C65.0971 7.16 64.7811 7.836 64.1491 8.316C63.5251 8.796 62.7411 9.036 61.7971 9.036H59.7571V12H58.8091ZM59.7571 8.172H61.8331C62.5291 8.172 63.0851 8.004 63.5011 7.668C63.9251 7.324 64.1371 6.868 64.1371 6.3C64.1371 5.716 63.9331 5.268 63.5251 4.956C63.1251 4.636 62.5771 4.476 61.8811 4.476H59.7571V8.172ZM67.2207 9.276C67.2847 9.908 67.5207 10.412 67.9287 10.788C68.3447 11.156 68.8367 11.34 69.4047 11.34C70.1487 11.34 70.8007 11.048 71.3607 10.464L71.9367 10.98C71.2407 11.756 70.3887 12.144 69.3807 12.144C68.5087 12.144 67.7727 11.844 67.1727 11.244C66.5807 10.636 66.2847 9.856 66.2847 8.904C66.2847 8 66.5687 7.236 67.1367 6.612C67.7047 5.98 68.4127 5.664 69.2607 5.664C70.1487 5.664 70.8527 5.976 71.3727 6.6C71.8927 7.224 72.1527 8.008 72.1527 8.952C72.1527 9.072 72.1487 9.18 72.1407 9.276H67.2207ZM67.2207 8.532H71.2167C71.1607 7.932 70.9607 7.436 70.6167 7.044C70.2807 6.644 69.8207 6.444 69.2367 6.444C68.7087 6.444 68.2567 6.64 67.8807 7.032C67.5047 7.424 67.2847 7.924 67.2207 8.532ZM75.8463 12.108C75.3103 12.108 74.8823 11.968 74.5623 11.688C74.2503 11.4 74.0943 10.956 74.0943 10.356V6.612H73.2303V5.796H74.0943V3.924H75.0183V5.796H76.9863V6.612H75.0183V10.236C75.0183 10.924 75.3663 11.268 76.0623 11.268C76.3663 11.268 76.6663 11.196 76.9623 11.052V11.844C76.6263 12.02 76.2543 12.108 75.8463 12.108ZM78.9981 9.276C79.0621 9.908 79.2981 10.412 79.7061 10.788C80.1221 11.156 80.6141 11.34 81.1821 11.34C81.9261 11.34 82.5781 11.048 83.1381 10.464L83.7141 10.98C83.0181 11.756 82.1661 12.144 81.1581 12.144C80.2861 12.144 79.5501 11.844 78.9501 11.244C78.3581 10.636 78.0621 9.856 78.0621 8.904C78.0621 8 78.3461 7.236 78.9141 6.612C79.4821 5.98 80.1901 5.664 81.0381 5.664C81.9261 5.664 82.6301 5.976 83.1501 6.6C83.6701 7.224 83.9301 8.008 83.9301 8.952C83.9301 9.072 83.9261 9.18 83.9181 9.276H78.9981ZM78.9981 8.532H82.9941C82.9381 7.932 82.7381 7.436 82.3941 7.044C82.0581 6.644 81.5981 6.444 81.0141 6.444C80.4861 6.444 80.0341 6.64 79.6581 7.032C79.2821 7.424 79.0621 7.924 78.9981 8.532ZM85.5476 12V5.796H86.4716V7.416C86.7116 6.88 87.0516 6.452 87.4916 6.132C87.9316 5.812 88.4356 5.664 89.0036 5.688V6.684H88.9316C88.2196 6.684 87.6316 6.932 87.1676 7.428C86.7036 7.924 86.4716 8.624 86.4716 9.528V12H85.5476ZM92.4629 12.12C92.0149 12.12 91.5589 12.04 91.0949 11.88C90.6389 11.712 90.2389 11.488 89.8949 11.208L90.3629 10.548C91.0669 11.076 91.7829 11.34 92.5109 11.34C92.8869 11.34 93.1949 11.248 93.4349 11.064C93.6749 10.88 93.7949 10.636 93.7949 10.332C93.7949 10.052 93.6629 9.836 93.3989 9.684C93.1429 9.532 92.7589 9.384 92.2469 9.24C91.9349 9.152 91.6869 9.072 91.5029 9C91.3189 8.928 91.1109 8.828 90.8789 8.7C90.6469 8.564 90.4749 8.396 90.3629 8.196C90.2509 7.988 90.1949 7.744 90.1949 7.464C90.1949 6.936 90.3909 6.508 90.7829 6.18C91.1829 5.852 91.6909 5.688 92.3069 5.688C93.1069 5.688 93.8509 5.916 94.5389 6.372L94.1189 7.068C93.5029 6.668 92.8909 6.468 92.2829 6.468C91.9229 6.468 91.6309 6.556 91.4069 6.732C91.1909 6.9 91.0829 7.12 91.0829 7.392C91.0829 7.504 91.1149 7.608 91.1789 7.704C91.2429 7.8 91.3149 7.88 91.3949 7.944C91.4749 8.008 91.5989 8.076 91.7669 8.148C91.9429 8.22 92.0829 8.272 92.1869 8.304C92.2909 8.336 92.4549 8.388 92.6789 8.46C92.9749 8.548 93.2189 8.632 93.4109 8.712C93.6029 8.792 93.8069 8.9 94.0229 9.036C94.2389 9.172 94.3989 9.344 94.5029 9.552C94.6149 9.752 94.6709 9.988 94.6709 10.26C94.6709 10.836 94.4629 11.292 94.0469 11.628C93.6309 11.956 93.1029 12.12 92.4629 12.12ZM99.6875 12.132C98.7115 12.132 97.9195 11.692 97.3115 10.812V12H96.3875V3.24H97.3115V7.044C97.9355 6.124 98.7275 5.664 99.6875 5.664C100.479 5.664 101.171 5.96 101.763 6.552C102.355 7.136 102.651 7.92 102.651 8.904C102.651 9.872 102.355 10.652 101.763 11.244C101.171 11.836 100.479 12.132 99.6875 12.132ZM99.5195 11.304C100.143 11.304 100.663 11.088 101.079 10.656C101.495 10.216 101.703 9.628 101.703 8.892C101.703 8.18 101.491 7.604 101.067 7.164C100.643 6.716 100.127 6.492 99.5195 6.492C98.9195 6.492 98.3955 6.72 97.9475 7.176C97.4995 7.632 97.2755 8.208 97.2755 8.904C97.2755 9.6 97.4995 10.176 97.9475 10.632C98.3955 11.08 98.9195 11.304 99.5195 11.304ZM106.636 12.132C105.9 12.132 105.32 11.908 104.896 11.46C104.472 11.004 104.26 10.4 104.26 9.648V5.796H105.184V9.42C105.184 10.004 105.332 10.464 105.628 10.8C105.932 11.128 106.356 11.292 106.9 11.292C107.436 11.292 107.88 11.112 108.232 10.752C108.584 10.392 108.76 9.924 108.76 9.348V5.796H109.672V12H108.76V10.92C108.256 11.728 107.548 12.132 106.636 12.132ZM111.751 12V5.796H112.675V7.416C112.915 6.88 113.255 6.452 113.695 6.132C114.135 5.812 114.639 5.664 115.207 5.688V6.684H115.135C114.423 6.684 113.835 6.932 113.371 7.428C112.907 7.924 112.675 8.624 112.675 9.528V12H111.751ZM119.104 13.944C118.056 13.944 117.116 13.656 116.284 13.08L116.704 12.36C117.432 12.888 118.228 13.152 119.092 13.152C119.788 13.152 120.336 12.96 120.736 12.576C121.144 12.2 121.348 11.656 121.348 10.944V10.212C120.692 11.084 119.88 11.52 118.912 11.52C118.128 11.52 117.444 11.252 116.86 10.716C116.284 10.172 115.996 9.464 115.996 8.592C115.996 7.72 116.288 7.016 116.872 6.48C117.456 5.936 118.136 5.664 118.912 5.664C119.904 5.664 120.712 6.08 121.336 6.912V5.796H122.26V10.92C122.26 11.856 121.996 12.588 121.468 13.116C120.916 13.668 120.128 13.944 119.104 13.944ZM119.092 10.704C119.7 10.704 120.232 10.504 120.688 10.104C121.144 9.704 121.372 9.196 121.372 8.58C121.372 7.964 121.144 7.46 120.688 7.068C120.24 6.676 119.708 6.48 119.092 6.48C118.484 6.48 117.972 6.676 117.556 7.068C117.148 7.452 116.944 7.96 116.944 8.592C116.944 9.2 117.152 9.704 117.568 10.104C117.992 10.504 118.5 10.704 119.092 10.704ZM123.989 13.464L123.845 13.044C124.381 12.844 124.649 12.536 124.649 12.12V12H124.217V10.74H125.321V11.82C125.321 12.3 125.213 12.668 124.997 12.924C124.789 13.18 124.453 13.36 123.989 13.464ZM131.02 12V3.6H134.632C135.664 3.6 136.46 3.88 137.02 4.44C137.452 4.872 137.668 5.432 137.668 6.12C137.668 6.792 137.46 7.336 137.044 7.752C136.628 8.168 136.076 8.44 135.388 8.568L137.968 12H136.804L134.368 8.736H131.968V12H131.02ZM131.968 7.884H134.548C135.188 7.884 135.708 7.728 136.108 7.416C136.508 7.104 136.708 6.676 136.708 6.132C136.708 5.612 136.516 5.208 136.132 4.92C135.756 4.624 135.232 4.476 134.56 4.476H131.968V7.884ZM141.816 12.132C141.08 12.132 140.5 11.908 140.076 11.46C139.652 11.004 139.44 10.4 139.44 9.648V5.796H140.364V9.42C140.364 10.004 140.512 10.464 140.808 10.8C141.112 11.128 141.536 11.292 142.08 11.292C142.616 11.292 143.06 11.112 143.412 10.752C143.764 10.392 143.94 9.924 143.94 9.348V5.796H144.852V12H143.94V10.92C143.436 11.728 142.728 12.132 141.816 12.132ZM148.982 12.12C148.534 12.12 148.078 12.04 147.614 11.88C147.158 11.712 146.758 11.488 146.414 11.208L146.882 10.548C147.586 11.076 148.302 11.34 149.03 11.34C149.406 11.34 149.714 11.248 149.954 11.064C150.194 10.88 150.314 10.636 150.314 10.332C150.314 10.052 150.182 9.836 149.918 9.684C149.662 9.532 149.278 9.384 148.766 9.24C148.454 9.152 148.206 9.072 148.022 9C147.838 8.928 147.63 8.828 147.398 8.7C147.166 8.564 146.994 8.396 146.882 8.196C146.77 7.988 146.714 7.744 146.714 7.464C146.714 6.936 146.91 6.508 147.302 6.18C147.702 5.852 148.21 5.688 148.826 5.688C149.626 5.688 150.37 5.916 151.058 6.372L150.638 7.068C150.022 6.668 149.41 6.468 148.802 6.468C148.442 6.468 148.15 6.556 147.926 6.732C147.71 6.9 147.602 7.12 147.602 7.392C147.602 7.504 147.634 7.608 147.698 7.704C147.762 7.8 147.834 7.88 147.914 7.944C147.994 8.008 148.118 8.076 148.286 8.148C148.462 8.22 148.602 8.272 148.706 8.304C148.81 8.336 148.974 8.388 149.198 8.46C149.494 8.548 149.738 8.632 149.93 8.712C150.122 8.792 150.326 8.9 150.542 9.036C150.758 9.172 150.918 9.344 151.022 9.552C151.134 9.752 151.19 9.988 151.19 10.26C151.19 10.836 150.982 11.292 150.566 11.628C150.15 11.956 149.622 12.12 148.982 12.12ZM154.842 12.12C154.394 12.12 153.938 12.04 153.474 11.88C153.018 11.712 152.618 11.488 152.274 11.208L152.742 10.548C153.446 11.076 154.162 11.34 154.89 11.34C155.266 11.34 155.574 11.248 155.814 11.064C156.054 10.88 156.174 10.636 156.174 10.332C156.174 10.052 156.042 9.836 155.778 9.684C155.522 9.532 155.138 9.384 154.626 9.24C154.314 9.152 154.066 9.072 153.882 9C153.698 8.928 153.49 8.828 153.258 8.7C153.026 8.564 152.854 8.396 152.742 8.196C152.63 7.988 152.574 7.744 152.574 7.464C152.574 6.936 152.77 6.508 153.162 6.18C153.562 5.852 154.07 5.688 154.686 5.688C155.486 5.688 156.23 5.916 156.918 6.372L156.498 7.068C155.882 6.668 155.27 6.468 154.662 6.468C154.302 6.468 154.01 6.556 153.786 6.732C153.57 6.9 153.462 7.12 153.462 7.392C153.462 7.504 153.494 7.608 153.558 7.704C153.622 7.8 153.694 7.88 153.774 7.944C153.854 8.008 153.978 8.076 154.146 8.148C154.322 8.22 154.462 8.272 154.566 8.304C154.67 8.336 154.834 8.388 155.058 8.46C155.354 8.548 155.598 8.632 155.79 8.712C155.982 8.792 156.186 8.9 156.402 9.036C156.618 9.172 156.778 9.344 156.882 9.552C156.994 9.752 157.05 9.988 157.05 10.26C157.05 10.836 156.842 11.292 156.426 11.628C156.01 11.956 155.482 12.12 154.842 12.12ZM158.79 4.44V3.42H159.846V4.44H158.79ZM158.85 12V5.796H159.774V12H158.85ZM163.767 12.132C163.135 12.132 162.591 11.96 162.135 11.616C161.679 11.272 161.451 10.792 161.451 10.176C161.451 9.528 161.691 9.028 162.171 8.676C162.651 8.324 163.295 8.148 164.103 8.148C164.743 8.148 165.375 8.236 165.999 8.412V8.22C165.999 7.676 165.839 7.26 165.519 6.972C165.199 6.684 164.747 6.54 164.163 6.54C163.555 6.54 162.927 6.688 162.279 6.984L162.003 6.228C162.771 5.876 163.523 5.7 164.259 5.7C165.139 5.7 165.807 5.928 166.263 6.384C166.695 6.816 166.911 7.424 166.911 8.208V12H165.999V11.076C165.447 11.78 164.703 12.132 163.767 12.132ZM163.947 11.388C164.523 11.388 165.011 11.232 165.411 10.92C165.811 10.608 166.011 10.208 166.011 9.72V9.144C165.403 8.968 164.799 8.88 164.199 8.88C163.631 8.88 163.187 8.996 162.867 9.228C162.547 9.452 162.387 9.76 162.387 10.152C162.387 10.528 162.535 10.828 162.831 11.052C163.135 11.276 163.507 11.388 163.947 11.388ZM168.868 12V5.796H169.792V6.876C170.28 6.068 170.988 5.664 171.916 5.664C172.652 5.664 173.232 5.892 173.656 6.348C174.08 6.796 174.292 7.396 174.292 8.148V12H173.368V8.376C173.368 7.792 173.216 7.336 172.912 7.008C172.616 6.672 172.196 6.504 171.652 6.504C171.116 6.504 170.672 6.684 170.32 7.044C169.968 7.404 169.792 7.872 169.792 8.448V12H168.868ZM180.016 12V3.6H186.052V4.476H180.964V7.476H185.512V8.34H180.964V12H180.016ZM188.111 9.276C188.175 9.908 188.411 10.412 188.819 10.788C189.235 11.156 189.727 11.34 190.295 11.34C191.039 11.34 191.691 11.048 192.251 10.464L192.827 10.98C192.131 11.756 191.279 12.144 190.271 12.144C189.399 12.144 188.663 11.844 188.063 11.244C187.471 10.636 187.175 9.856 187.175 8.904C187.175 8 187.459 7.236 188.027 6.612C188.595 5.98 189.303 5.664 190.151 5.664C191.039 5.664 191.743 5.976 192.263 6.6C192.783 7.224 193.043 8.008 193.043 8.952C193.043 9.072 193.039 9.18 193.031 9.276H188.111ZM188.111 8.532H192.107C192.051 7.932 191.851 7.436 191.507 7.044C191.171 6.644 190.711 6.444 190.127 6.444C189.599 6.444 189.147 6.64 188.771 7.032C188.395 7.424 188.175 7.924 188.111 8.532ZM197.265 12.132C196.473 12.132 195.781 11.84 195.189 11.256C194.597 10.664 194.301 9.876 194.301 8.892C194.301 7.924 194.597 7.144 195.189 6.552C195.781 5.96 196.473 5.664 197.265 5.664C198.241 5.664 199.033 6.104 199.641 6.984V3.24H200.565V12H199.641V10.752C199.017 11.672 198.225 12.132 197.265 12.132ZM197.433 11.304C198.033 11.304 198.557 11.076 199.005 10.62C199.453 10.164 199.677 9.584 199.677 8.88C199.677 8.192 199.453 7.624 199.005 7.176C198.557 6.72 198.033 6.492 197.433 6.492C196.809 6.492 196.289 6.712 195.873 7.152C195.457 7.584 195.249 8.168 195.249 8.904C195.249 9.616 195.461 10.196 195.885 10.644C196.309 11.084 196.825 11.304 197.433 11.304ZM203.182 9.276C203.246 9.908 203.482 10.412 203.89 10.788C204.306 11.156 204.798 11.34 205.366 11.34C206.11 11.34 206.762 11.048 207.322 10.464L207.898 10.98C207.202 11.756 206.35 12.144 205.342 12.144C204.47 12.144 203.734 11.844 203.134 11.244C202.542 10.636 202.246 9.856 202.246 8.904C202.246 8 202.53 7.236 203.098 6.612C203.666 5.98 204.374 5.664 205.222 5.664C206.11 5.664 206.814 5.976 207.334 6.6C207.854 7.224 208.114 8.008 208.114 8.952C208.114 9.072 208.11 9.18 208.102 9.276H203.182ZM203.182 8.532H207.178C207.122 7.932 206.922 7.436 206.578 7.044C206.242 6.644 205.782 6.444 205.198 6.444C204.67 6.444 204.218 6.64 203.842 7.032C203.466 7.424 203.246 7.924 203.182 8.532ZM209.731 12V5.796H210.655V7.416C210.895 6.88 211.235 6.452 211.675 6.132C212.115 5.812 212.619 5.664 213.187 5.688V6.684H213.115C212.403 6.684 211.815 6.932 211.351 7.428C210.887 7.924 210.655 8.624 210.655 9.528V12H209.731ZM216.138 12.132C215.506 12.132 214.962 11.96 214.506 11.616C214.05 11.272 213.822 10.792 213.822 10.176C213.822 9.528 214.062 9.028 214.542 8.676C215.022 8.324 215.666 8.148 216.474 8.148C217.114 8.148 217.746 8.236 218.37 8.412V8.22C218.37 7.676 218.21 7.26 217.89 6.972C217.57 6.684 217.118 6.54 216.534 6.54C215.926 6.54 215.298 6.688 214.65 6.984L214.374 6.228C215.142 5.876 215.894 5.7 216.63 5.7C217.51 5.7 218.178 5.928 218.634 6.384C219.066 6.816 219.282 7.424 219.282 8.208V12H218.37V11.076C217.818 11.78 217.074 12.132 216.138 12.132ZM216.318 11.388C216.894 11.388 217.382 11.232 217.782 10.92C218.182 10.608 218.382 10.208 218.382 9.72V9.144C217.774 8.968 217.17 8.88 216.57 8.88C216.002 8.88 215.558 8.996 215.238 9.228C214.918 9.452 214.758 9.76 214.758 10.152C214.758 10.528 214.906 10.828 215.202 11.052C215.506 11.276 215.878 11.388 216.318 11.388ZM223.315 12.108C222.779 12.108 222.351 11.968 222.031 11.688C221.719 11.4 221.563 10.956 221.563 10.356V6.612H220.699V5.796H221.563V3.924H222.487V5.796H224.455V6.612H222.487V10.236C222.487 10.924 222.835 11.268 223.531 11.268C223.835 11.268 224.135 11.196 224.431 11.052V11.844C224.095 12.02 223.723 12.108 223.315 12.108ZM226.115 4.44V3.42H227.171V4.44H226.115ZM226.175 12V5.796H227.099V12H226.175ZM234.391 11.196C233.767 11.828 232.995 12.144 232.075 12.144C231.155 12.144 230.387 11.828 229.771 11.196C229.163 10.564 228.859 9.8 228.859 8.904C228.859 8.016 229.167 7.256 229.783 6.624C230.407 5.984 231.179 5.664 232.099 5.664C233.019 5.664 233.787 5.98 234.403 6.612C235.019 7.244 235.327 8.008 235.327 8.904C235.327 9.792 235.015 10.556 234.391 11.196ZM232.099 11.316C232.763 11.316 233.307 11.084 233.731 10.62C234.163 10.156 234.379 9.584 234.379 8.904C234.379 8.232 234.155 7.66 233.707 7.188C233.267 6.716 232.723 6.48 232.075 6.48C231.411 6.48 230.867 6.716 230.443 7.188C230.019 7.652 229.807 8.224 229.807 8.904C229.807 9.576 230.027 10.148 230.467 10.62C230.907 11.084 231.451 11.316 232.099 11.316ZM237.001 12V5.796H237.925V6.876C238.413 6.068 239.121 5.664 240.049 5.664C240.785 5.664 241.365 5.892 241.789 6.348C242.213 6.796 242.425 7.396 242.425 8.148V12H241.501V8.376C241.501 7.792 241.349 7.336 241.045 7.008C240.749 6.672 240.329 6.504 239.785 6.504C239.249 6.504 238.805 6.684 238.453 7.044C238.101 7.404 237.925 7.872 237.925 8.448V12H237.001Z" fill="#181818"/>
<path d="M2 8.33328L14.6667 2.33328L8.66667 14.9999L7.33333 9.66662L2 8.33328Z" fill="#0275B1"/>
</svg>
